<svg xmlns="http://www.w3.org/2000/svg" viewBox="0 0 755.71 192.73"><defs><style>.cls-1{fill:#515968;}.cls-2{fill:#8cc34a;}.cls-3{fill:#35a1da;}.cls-4{fill:#7750a0;}</style></defs><g id="Layer_2" data-name="Layer 2"><g id="Layer_3" data-name="Layer 3"><path class="cls-1" d="M631.82,166.77c-10.7,0-20.94.06-31.17-.11-.91,0-2.2-1.34-2.62-2.35q-4.78-11.33-9.25-22.8c-.73-1.87-1.63-2.65-3.76-2.63q-23,.15-46.07,0c-2.15,0-3,.81-3.76,2.66-3,7.63-6.13,15.19-9.12,22.81-.69,1.76-1.55,2.5-3.57,2.47-9.93-.12-19.87,0-30.31,0,.43-1.22.7-2.08,1-2.92q26.25-64.3,52.47-128.6c.77-1.89,1.72-2.64,3.82-2.61,8.4.12,16.81.1,25.21,0a3.11,3.11,0,0,1,3.42,2.28q26.46,64.94,53,129.84C631.37,165.28,631.51,165.83,631.82,166.77ZM562.4,76.28l-.84.08-13.13,32.55h27.15Z"/><path class="cls-1" d="M677.82,166.65H647.23v-134h2.95c18.84,0,37.67,0,56.5,0,22.63.07,42.7,15.24,47.7,35.95,5.89,24.38-8.29,48.54-33.09,55.81a65.24,65.24,0,0,1-15.39,2.25c-8.19.36-16.41.1-24.62.1h-3.46Zm-.06-87c0,5.21.06,10.42,0,15.63,0,1.88.37,2.81,2.53,2.79,8.88-.1,17.76.12,26.63-.1a18.28,18.28,0,0,0,.65-36.55c-9.16-.27-18.34,0-27.51-.1-1.8,0-2.32.71-2.29,2.4C677.81,69,677.76,74.35,677.76,79.66Z"/><path class="cls-1" d="M484.67,60.32,460.79,77.74c-1.37-1.56-2.61-3-3.9-4.41C439.26,54,407.19,55.15,391,75.63c-17.33,22-6.7,54.18,20.89,62.24,18,5.27,33.71.59,46.41-13.44.77-.84,1.5-1.72,2.43-2.79l24,17.51a72.51,72.51,0,0,1-29.66,23.26c-30.84,13.18-67.35,4.7-87.88-20.4-27.11-33.13-17.25-80.91,21-101.94a75.93,75.93,0,0,1,96,19.42A5.7,5.7,0,0,1,484.67,60.32Z"/><path class="cls-1" d="M207.24,60.2V31.48H346.89V60.2h-6.26c-14.23,0-28.47.08-42.7-.06-3.1,0-4,.78-4,3.59q.15,49.23.07,98.47v3.72H260.15V64.38c0-4.17,0-4.18-4.47-4.18H207.24Z"/><path class="cls-2" d="M118.13,174.19a66.33,66.33,0,0,1-44-62.47c0-1.86.1-3.69.25-5.51L67.07,94.94a6.5,6.5,0,0,0-5.56-3h0A6.49,6.49,0,0,0,55.89,95L1,182.59a6.63,6.63,0,0,0,5.62,10.14H117.92a6.62,6.62,0,0,0,5.57-10.21Z"/><path class="cls-3" d="M76.55,93.81a66.33,66.33,0,0,1,63.85-48.4V15.27A15.27,15.27,0,0,0,125.13,0H32.55A15.27,15.27,0,0,0,17.29,15.27v92.58a15.28,15.28,0,0,0,10.83,14.61l20-31.94a15.41,15.41,0,0,1,13-7.28h.1a15.46,15.46,0,0,1,13,7.11Z"/><circle class="cls-4" cx="140.26" cy="111.72" r="57.42"/></g></g></svg>